<?xml version="1.0" encoding="iso-8859-1"?>
<!-- Generator: Adobe Illustrator 19.0.0, SVG Export Plug-In . SVG Version: 6.00 Build 0)  -->
<svg version="1.1" id="Layer_1" xmlns="http://www.w3.org/2000/svg" xmlns:xlink="http://www.w3.org/1999/xlink" x="0px" y="0px"
	 viewBox="0 0 512 512" style="enable-background:new 0 0 512 512;" xml:space="preserve">
<circle style="fill:#90BAE1;" cx="256" cy="256" r="256"/>
<g>
	<path style="fill:#285680;" d="M176.552,132.414h26.483c9.754,0,17.655,7.901,17.655,17.655v211.862
		c0,9.754-7.901,17.655-17.655,17.655h-26.483c-9.754,0-17.655-7.901-17.655-17.655V150.069
		C158.897,140.314,166.797,132.414,176.552,132.414z"/>
	<path style="fill:#285680;" d="M308.966,132.414h26.483c9.754,0,17.655,7.901,17.655,17.655v211.862
		c0,9.754-7.901,17.655-17.655,17.655h-26.483c-9.754,0-17.655-7.901-17.655-17.655V150.069
		C291.31,140.314,299.211,132.414,308.966,132.414z"/>
</g>
<g>
</g>
<g>
</g>
<g>
</g>
<g>
</g>
<g>
</g>
<g>
</g>
<g>
</g>
<g>
</g>
<g>
</g>
<g>
</g>
<g>
</g>
<g>
</g>
<g>
</g>
<g>
</g>
<g>
</g>
</svg>
